<svg width="25" height="25" viewBox="0 0 25 25" fill="none" xmlns="http://www.w3.org/2000/svg">
<circle cx="12.5" cy="12.5" r="12.5" fill="#ECAA00"/>
<path d="M14 5.8L13.68 15.46H11.32L10.98 5.8H14ZM12.56 20.14C12.0533 20.14 11.6333 19.9867 11.3 19.68C10.98 19.36 10.82 18.9667 10.82 18.5C10.82 18.0333 10.98 17.6467 11.3 17.34C11.6333 17.02 12.0533 16.86 12.56 16.86C13.0533 16.86 13.46 17.02 13.78 17.34C14.1 17.6467 14.26 18.0333 14.26 18.5C14.26 18.9667 14.1 19.36 13.78 19.68C13.46 19.9867 13.0533 20.14 12.56 20.14Z" fill="white"/>
</svg>
