<svg xmlns="http://www.w3.org/2000/svg" viewBox="0 0 47 47" width="47" height="47" preserveAspectRatio="xMidYMid meet" style="width: 100%; height: 100%; transform: translate3d(0px, 0px, 0px); content-visibility: visible;"><defs><clipPath id="__lottie_element_20"><rect width="47" height="47" x="0" y="0"></rect></clipPath></defs><g clip-path="url(#__lottie_element_20)"><g transform="matrix(1,0,0,1,-207.43699645996094,-12.375)" opacity="1" style="display: block;"><g opacity="0.5" transform="matrix(0.9999986290931702,0,0,0.9999986290931702,231,36)"><path fill="rgb(248,248,249)" fill-opacity="1" d=" M-23,0 C-23,-12.708000183105469 -12.708000183105469,-23 0,-23 C12.708000183105469,-23 23,-12.708000183105469 23,0 C23,12.706999778747559 12.708000183105469,23 0,23 C-12.708000183105469,23 -23,12.706999778747559 -23,0z"></path></g><g opacity="1" transform="matrix(0.9999983906745911,0,0,0.9999983906745911,231,36)"><path fill="rgb(248,248,249)" fill-opacity="1" d=" M-20,0 C-20,-11.050000190734863 -11.050000190734863,-20 0,-20 C11.050000190734863,-20 20,-11.050000190734863 20,0 C20,11.050000190734863 11.050000190734863,20 0,20 C-11.050000190734863,20 -20,11.050000190734863 -20,0z"></path></g><g opacity="1" transform="matrix(1,0,0,1,231,35.25)"><path stroke-linecap="butt" stroke-linejoin="miter" fill-opacity="0" stroke-miterlimit="4" stroke="rgb(64,191,156)" stroke-opacity="1" stroke-width="4" d=" M-9.5,-1.75 C-9.5,-1.75 -2,5.75 -2,5.75 C-2,5.75 9.5,-5.75 9.5,-5.75"></path></g></g></g></svg>